<?xml version="1.0" encoding="utf-8"?>
<!-- Generator: Adobe Illustrator 24.3.0, SVG Export Plug-In . SVG Version: 6.00 Build 0)  -->
<svg version="1.1" id="Capa_1" xmlns="http://www.w3.org/2000/svg" xmlns:xlink="http://www.w3.org/1999/xlink" x="0px" y="0px"
	 viewBox="0 0 503 575.5" enable-background="new 0 0 503 575.5" xml:space="preserve">
<g>
	<g>
		<g>
			<path fill="#0C2343" d="M490.9,208.3H12.1c-5.1,0-9.6-3.2-11.4-8c-1.7-4.8-0.2-10.2,3.7-13.4C54.5,145.7,106,104.7,155.9,65.1
				l46.7-37.3C225.4,9.2,235.8,0.2,251.5,0c14.6,0.4,26.1,9.2,48.9,27.8L348,65.9c49.5,39.4,100.8,80.1,150.5,121
				c3.9,3.2,5.4,8.6,3.7,13.4C500.5,205.1,496,208.3,490.9,208.3z M45.9,184.2h411.1c-41.3-33.6-83.2-66.9-124-99.4l-47.9-38.3
				c-16.6-13.5-27.6-22.4-33.5-22.4c0,0-0.1,0-0.1,0c0,0-0.1,0-0.1,0c-6,0-16.9,8.9-33.5,22.4L170.9,84
				C129.8,116.7,87.5,150.3,45.9,184.2z"/>
		</g>
	</g>
	<g>
		<path fill="#0C2343" d="M251.5,454c-6.7,0-12.1-5.4-12.1-12.1V256.3c0-6.7,5.4-12.1,12.1-12.1s12.1,5.4,12.1,12.1v185.6
			C263.5,448.6,258.1,454,251.5,454z"/>
	</g>
	<g>
		<g>
			<path fill="#0C2343" d="M54.4,454c-6.7,0-12.1-5.4-12.1-12.1V256.3c0-6.7,5.4-12.1,12.1-12.1s12.1,5.4,12.1,12.1v185.6
				C66.4,448.6,61,454,54.4,454z"/>
		</g>
		<g>
			<path fill="#0C2343" d="M462.3,454c-6.7,0-12.1-5.4-12.1-12.1V256.3c0-6.7,5.4-12.1,12.1-12.1s12.1,5.4,12.1,12.1v185.6
				C474.4,448.6,469,454,462.3,454z"/>
		</g>
	</g>
	<g>
		<path fill="#0C2343" d="M490.9,575.5H12.1c-6.7,0-12.1-5.4-12.1-12.1s5.4-12.1,12.1-12.1h478.8c6.7,0,12.1,5.4,12.1,12.1
			S497.5,575.5,490.9,575.5z"/>
	</g>
	<g>
		<path fill="#0C2343" d="M463.5,513.5h-424c-6.7,0-12.1-5.4-12.1-12.1s5.4-12.1,12.1-12.1h424c6.7,0,12.1,5.4,12.1,12.1
			S470.2,513.5,463.5,513.5z"/>
	</g>
</g>
</svg>
