<?xml version="1.0" encoding="utf-8"?>
<!-- Generator: Adobe Illustrator 24.3.0, SVG Export Plug-In . SVG Version: 6.00 Build 0)  -->
<svg version="1.1" id="Capa_1" xmlns="http://www.w3.org/2000/svg" xmlns:xlink="http://www.w3.org/1999/xlink" x="0px" y="0px"
	 viewBox="0 0 526 543.7" enable-background="new 0 0 526 543.7" xml:space="preserve">
<g>
	<g>
		<path fill="#0C2343" d="M471.4,543.7H54.6C24.5,543.7,0,519.2,0,489.1V54.6C0,24.5,24.5,0,54.6,0h416.7C501.5,0,526,24.5,526,54.6
			v434.4C526,519.2,501.5,543.7,471.4,543.7z M54.6,24.2c-16.8,0-30.5,13.7-30.5,30.5v434.4c0,16.8,13.7,30.5,30.5,30.5h416.7
			c16.8,0,30.5-13.7,30.5-30.5V54.6c0-16.8-13.7-30.5-30.5-30.5H54.6z"/>
	</g>
	<g>
		<g>
			<g>
				<path fill="#0C2343" d="M157.6,445.5c-6.7,0-12.1-5.4-12.1-12.1V307.2c0-6.7,5.4-12.1,12.1-12.1s12.1,5.4,12.1,12.1v126.2
					C169.7,440.1,164.3,445.5,157.6,445.5z"/>
			</g>
			<g>
				<path fill="#0C2343" d="M220.7,382.4H94.5c-6.7,0-12.1-5.4-12.1-12.1s5.4-12.1,12.1-12.1h126.2c6.7,0,12.1,5.4,12.1,12.1
					S227.4,382.4,220.7,382.4z"/>
			</g>
		</g>
		<g>
			<g>
				<path fill="#0C2343" d="M409.6,382.4h-82.4c-6.7,0-12.1-5.4-12.1-12.1s5.4-12.1,12.1-12.1h82.4c6.7,0,12.1,5.4,12.1,12.1
					S416.3,382.4,409.6,382.4z"/>
			</g>
		</g>
		<g>
			<g>
				<path fill="#0C2343" d="M202.2,211.6c-3.1,0-6.2-1.2-8.5-3.5l-89.3-89.3c-4.7-4.7-4.7-12.4,0-17.1s12.4-4.7,17.1,0l89.3,89.3
					c4.7,4.7,4.7,12.4,0,17.1C208.4,210.5,205.3,211.6,202.2,211.6z"/>
			</g>
			<g>
				<path fill="#0C2343" d="M112.9,211.6c-3.1,0-6.2-1.2-8.5-3.5c-4.7-4.7-4.7-12.4,0-17.1l89.3-89.3c4.7-4.7,12.4-4.7,17.1,0
					s4.7,12.4,0,17.1l-89.3,89.3C119.1,210.5,116,211.6,112.9,211.6z"/>
			</g>
		</g>
		<g>
			<path fill="#0C2343" d="M323.8,211.6c-3.1,0-6.2-1.2-8.5-3.5c-4.7-4.7-4.7-12.4,0-17.1l89.3-89.3c4.7-4.7,12.4-4.7,17.1,0
				c4.7,4.7,4.7,12.4,0,17.1l-89.3,89.3C330,210.5,326.9,211.6,323.8,211.6z"/>
		</g>
	</g>
</g>
</svg>
