<?xml version="1.0" encoding="utf-8"?>
<!-- Generator: Adobe Illustrator 24.3.0, SVG Export Plug-In . SVG Version: 6.00 Build 0)  -->
<svg version="1.1" id="Capa_1" xmlns="http://www.w3.org/2000/svg" xmlns:xlink="http://www.w3.org/1999/xlink" x="0px" y="0px"
	 viewBox="0 0 541.7 541.7" enable-background="new 0 0 541.7 541.7" xml:space="preserve">
<g>
	<path fill="#0C2343" d="M256.7,541.7c-4.2,0-8.3,0-12.5-0.2c-19.4-0.8-31.2-12.9-31.6-32.4c-0.3-14.3-0.3-28.6,0-43
		c0.1-5-1-7.6-7.5-10.2c-4.6-1.8-8.6-3.4-12-4.9c-14.7-6.1-14.7-6.2-32.5,11.9l-2.9,3c-16,16.2-24.9,25.1-37.1,25.1c0,0,0,0,0,0
		c-12.3,0-20.8-8.5-37.7-25.5l-6.9-6.9c-5.2-5.1-10.4-10.3-15.4-15.6c-13-13.9-12.9-30.4,0.3-44.2c9.9-10.4,20.1-20.4,30.4-30.4
		c4.5-4.3,5-7.5,2.3-13.4c-2.8-6-4.8-11-6.5-15.2c-1.6-4-3.6-8.9-4.6-9.8c-2.3-1.4-15.2-1.3-28.7-1.1c-6.8,0.1-13.6,0.1-20.4,0
		c-20.9-0.5-32.7-12.4-33.2-33.5c-0.2-6-0.1-12-0.1-17.9l0-7.4l0,0l0-8.3c-0.1-6.2-0.1-12.3,0.2-18.5c0.9-18.6,13-30.4,31.7-30.8
		c14.7-0.4,29.4-0.3,44.2,0c5.9-0.1,7.4-1.5,9.3-6.6c2.3-6.4,4.5-11.4,6.3-15.6c5.2-12.2,5.2-12.2-15.5-32.1c-3.1-3-6.2-6.2-9.3-9.3
		l-2.4-2.4c-17.9-18.1-18.1-34-0.5-51.8l5.3-5.4c9.4-9.6,18.9-19.1,28.6-28.4c14.1-13.6,31-13.5,45.2,0.1
		c10.3,9.9,20.4,20.1,30.3,30.4c4,4.1,7,4.7,12.4,2.2c6-2.7,10.9-4.7,15-6.4c4.3-1.7,9.6-3.9,10.4-4.9c1.5-2.1,1.4-15.3,1.3-28
		c-0.2-23.5-0.3-36.5,8.6-45.4c8.8-8.9,21.2-8.9,45.7-8.9l8.9,0c7.2,0,14.4-0.1,21.6,0.1C316.8,0.9,328.6,13,329,32.5
		c0.3,14.3,0.3,28.7,0,43c-0.1,5,0.9,7.7,7.4,10.2c5.1,2,9.3,3.7,13,5.3c13.9,5.8,13.9,5.8,32.8-13.4l1.8-1.8
		c16-16.2,24.8-25.1,37.1-25.2c12.9,0.8,20.8,8.4,37.8,25.4l5.8,5.8c5.6,5.5,11.2,11,16.5,16.8c12.8,13.7,12.7,30.6-0.2,44.2
		c-9.9,10.4-20.1,20.5-30.5,30.4c-4.5,4.3-5,7.5-2.3,13.4c2.8,6,4.8,11,6.4,15.1c1.6,4,3.6,9,4.6,9.9c2.3,1.5,15.1,1.3,28.6,1.2
		c6.8-0.1,13.6-0.1,20.4,0c20.7,0.5,32.8,12.2,33.2,32.2c0.4,17.2,0.4,34.5,0,51.7c-0.4,20.3-12.5,32.1-33,32.5
		c-14.3,0.2-28.6,0.2-42.9,0c-5.6,0.4-7.4,1.5-9.3,6.7c-2.3,6.2-4.4,11.1-6.1,15.2c-5.2,12.4-5.2,12.4,16.2,33.5
		c16.1,15.8,24.9,24.4,25,36.5c0.1,12.1-8.6,20.8-24.4,36.6l-6,6c-5.7,5.8-11.5,11.6-17.4,17.1c-14.2,13.4-31.1,13.3-45.2-0.3
		c-10.3-9.9-20.3-20.1-30.3-30.3c-4-4.1-7-4.6-12.4-2.1c-6.2,2.9-11.3,4.9-15.6,6.6c-4,1.6-9,3.6-9.9,4.6
		c-1.5,2.3-1.4,15.4-1.3,28.1c0.2,23.5,0.3,36.4-8.6,45.4c-8.8,8.9-21.2,8.9-45.8,8.9l-8.9,0C262.7,541.6,259.7,541.7,256.7,541.7z
		 M178.6,422.2c6.2,0,13.5,2.3,23.7,6.5c3.3,1.4,7.1,2.9,11.5,4.7c19.3,7.5,23.1,22.2,22.8,33.2c-0.3,14-0.3,28,0,42
		c0.1,6.8,1.8,8.5,8.4,8.7c6.8,0.3,13.6,0.2,20.4,0.1l9.1,0c12.8,0,26.1,0,28.7-1.8c1.7-2.5,1.6-16.1,1.5-28.1
		c-0.3-37-0.3-44.6,26.3-55.3c3.9-1.6,8.7-3.5,14.4-6.1c14.6-6.7,28.7-4.2,39.8,7.2c9.8,10,19.7,20,29.8,29.8
		c4.8,4.6,7,4.6,11.9,0.1c5.7-5.4,11.2-11,16.8-16.6l6-6.1c8.2-8.2,16.7-16.7,17.3-19.7c-0.7-2.5-9.8-11.3-17.8-19.2
		c-28.5-27.9-32.9-33.3-21.6-60.1c1.6-3.9,3.6-8.5,5.7-14.2c5.4-14.6,17-23.2,32.3-22.4c14,0.2,28.1,0.2,42.1,0
		c7.9-0.1,9.1-2.1,9.2-8.8c0.3-16.9,0.4-33.8,0-50.7c-0.1-6.1-1-8.4-9.6-8.6c-6.5-0.1-13-0.1-19.6,0c-37.5,0.4-45.2,0.6-55.9-26.2
		c-1.5-3.8-3.4-8.4-6-14c-7-15.3-4.4-29.4,7.5-40.9c10.1-9.7,20-19.5,29.7-29.6c4.1-4.3,4.1-6.7,0-11.1c-5.1-5.5-10.5-10.8-15.8-16
		l-5.9-5.8C433,84.3,424,75.3,421,74.7c-2.7,0.6-11.8,9.9-19.8,18l-1.8,1.8c-26.1,26.4-31.2,30.4-59.3,18.7c-3.5-1.5-7.5-3.1-12.3-5
		c-19.3-7.4-23.1-22.1-22.8-33.2c0.3-14,0.3-28,0-42c-0.1-6.7-1.8-8.4-8.4-8.7c-6.8-0.3-13.6-0.2-20.5-0.1l-9.1,0
		c-12.8,0-26.1,0-28.6,1.8c-1.7,2.5-1.6,16.1-1.5,28.1c0.3,38.2-0.4,44.9-26.8,55.5c-3.8,1.6-8.5,3.4-14,6
		c-14.6,6.7-28.8,4-39.8-7.4c-9.7-10-19.6-20-29.7-29.7c-4.9-4.7-7-4.7-11.8-0.1c-9.5,9.2-18.8,18.5-28.1,28l-5.3,5.4
		c-7.9,8-8.6,8.7,0.5,17.8l2.4,2.4c2.9,3,5.9,5.9,8.9,8.8c28.2,27.1,31.9,33.4,20.9,59c-1.7,3.9-3.7,8.6-5.8,14.5
		c-5.4,14.7-17.2,22.4-32.3,22.4c-14.4-0.2-28.8-0.3-43.3,0c-6.1,0.1-7.8,1.8-8.1,7.8c-0.3,5.7-0.2,11.4-0.2,17.1l0.1,8.6l0,7.5
		c0,5.7-0.1,11.4,0.1,17.2c0.2,8.2,1.6,9.7,9.6,9.9c6.5,0.2,13,0.1,19.5,0c37.5-0.4,45.3-0.5,56,26.1c1.5,3.8,3.4,8.5,6,14.1
		c7,15.3,4.4,29.4-7.5,40.9c-10.1,9.7-20,19.6-29.7,29.6c-4.2,4.4-4.2,6.6-0.1,11c4.7,5.1,9.7,10,14.7,14.9l7.1,7
		c8.7,8.7,17.7,17.8,20.8,18.4c2.7-0.6,11.4-9.5,19.8-18l2.9-3C159.6,429.7,167.4,422.2,178.6,422.2z M270.9,375.8c0,0-0.1,0-0.1,0
		c-56.9-0.1-103.9-46.7-104.9-103.9c-0.5-27.4,10.1-53.6,29.7-73.8c19.9-20.5,46.4-32,74.6-32.3c26.6-0.2,53.8,10.4,73.9,30.2
		c20.3,20,31.6,46.4,31.8,74.5c0.2,27.7-10.8,54-30.8,74.1C325,364.7,298.6,375.8,270.9,375.8z M270.4,190
		c-21.7,0.2-42.1,9.1-57.5,25c-15.1,15.5-23.2,35.6-22.9,56.5c0.7,44.2,37,80.1,80.8,80.2c0,0,0.1,0,0.1,0c21.3,0,41.5-8.6,57-24.1
		c15.4-15.5,23.9-35.7,23.8-56.9c-0.1-21.5-8.8-41.9-24.6-57.4c-15.3-15-35.1-23.3-55.8-23.3C271,190,270.7,190,270.4,190
		C270.4,190,270.4,190,270.4,190z M270.3,177.9h0.2H270.3z"/>
</g>
</svg>
