<?xml version="1.0" encoding="utf-8"?>
<!-- Generator: Adobe Illustrator 24.3.0, SVG Export Plug-In . SVG Version: 6.00 Build 0)  -->
<svg version="1.1" id="Capa_1" xmlns="http://www.w3.org/2000/svg" xmlns:xlink="http://www.w3.org/1999/xlink" x="0px" y="0px"
	 viewBox="0 0 368.9 574.1" enable-background="new 0 0 368.9 574.1" xml:space="preserve">
<g>
	<g>
		<path fill="#0C2343" d="M180.8,285.3c-78.7,0-142.7-64-142.7-142.6C38.2,64,102.2,0,180.8,0c78.6,0,142.6,64,142.6,142.7
			C323.5,221.3,259.5,285.3,180.8,285.3z M180.8,24.2c-65.3,0-118.5,53.2-118.5,118.5s53.2,118.5,118.5,118.5S299.3,208,299.3,142.7
			S246.2,24.2,180.8,24.2z"/>
	</g>
	<g>
		<path fill="#0C2343" d="M356.9,574.1H12.1C5.4,574.1,0,568.7,0,562V445.7c0-101.8,82.8-184.6,184.6-184.6
			c101.6,0,184.3,82.8,184.3,184.6V562C368.9,568.7,363.5,574.1,356.9,574.1z M24.2,550h320.6V445.7c0-88.5-71.8-160.5-160.2-160.5
			c-88.5,0-160.5,72-160.5,160.5V550z"/>
	</g>
</g>
</svg>
