<?xml version="1.0" encoding="utf-8"?>
<!-- Generator: Adobe Illustrator 24.3.0, SVG Export Plug-In . SVG Version: 6.00 Build 0)  -->
<svg version="1.1" id="Capa_1" xmlns="http://www.w3.org/2000/svg" xmlns:xlink="http://www.w3.org/1999/xlink" x="0px" y="0px"
	 viewBox="0 0 515.5 505.7" enable-background="new 0 0 515.5 505.7" xml:space="preserve">
<g>
	<g>
		<path fill="#0C2343" d="M54.4,176.7c-3.1,0-6.1-1.2-8.5-3.5l-10.6-10.4c-8.7-8.5-17.4-17-25.9-25.9c-12.7-13.3-12.5-34.8,0.5-48
			c26-26.5,52.3-52.7,78.7-78.7C101.7-2.9,123-3.4,136,8.9c9.1,8.6,17.8,17.6,26.4,26.4L173,46.2c4.6,4.7,4.6,12.3-0.1,17
			l-110,109.9C60.6,175.5,57.5,176.7,54.4,176.7z M113.3,24.2c-2.8,0-5.7,1.1-7.8,3.1C79.2,53.3,53,79.4,27.1,105.8
			c-3.8,3.8-3.9,10.6-0.2,14.4c8.3,8.6,16.8,17,25.3,25.3l2.2,2.1l93.1-93l-2.4-2.5c-8.3-8.6-16.8-17.3-25.6-25.7
			C117.8,24.9,115.6,24.2,113.3,24.2z"/>
	</g>
	<g>
		<path fill="#0C2343" d="M492.9,505.7c-4.8,0-8.8-1.3-11.1-2.1L431.4,487c-28.2-9.3-56.4-18.6-84.6-28c-5.4-1.8-10.5-4.9-14.3-8.6
			C257.7,375.7,183,300.9,108.2,226.1c-1.1-1.1-2.2-2.3-3.1-3.4c-4.3-4.8-5-13.1-0.5-17.7L215,94.9c4.6-4.6,12.1-4.7,16.8-0.2l2.1,2
			c2.2,2,4.5,4.2,6.8,6.5l9.5,9.5c69.8,69.8,139.6,139.5,209.3,209.4c4.2,4.2,7.5,9.6,9.4,15.2c9.6,28.7,19,57.5,28.5,86.3
			l16.1,48.8c1.5,4.5,5.4,16.4-4.4,26.5l0,0C503.7,504.2,497.9,505.7,492.9,505.7z M500.4,490.4l-8.6-8.5L500.4,490.4z M130.1,213.8
			c73.1,73.2,146.3,146.4,219.5,219.4c1.1,1.1,3,2.2,4.8,2.8c28.2,9.4,56.3,18.7,84.5,27.9l50.5,16.7c0.6,0.2,1,0.3,1.4,0.4
			c-0.1-0.3-0.2-0.7-0.4-1.2l-16.1-48.8c-9.5-28.7-18.9-57.5-28.5-86.2c-0.7-2.1-2.1-4.3-3.6-5.8
			c-69.7-69.9-139.4-139.6-209.2-209.4l-9.4-9.4L130.1,213.8z"/>
	</g>
</g>
</svg>
