<?xml version="1.0" encoding="utf-8"?>
<!-- Generator: Adobe Illustrator 24.3.0, SVG Export Plug-In . SVG Version: 6.00 Build 0)  -->
<svg version="1.1" id="Capa_1" xmlns="http://www.w3.org/2000/svg" xmlns:xlink="http://www.w3.org/1999/xlink" x="0px" y="0px"
	 viewBox="0 0 670.8 665" enable-background="new 0 0 670.8 665" xml:space="preserve">
<g>
	<g>
		<path fill="#0C2343" d="M370.9,550.7H70.1C31.4,550.7,0,519.3,0,480.7V70.1C0,31.4,31.4,0,70.1,0h392.7
			c38.6,0,70.1,31.4,70.1,70.1v291.9c0,6.7-5.4,12.1-12.1,12.1c-6.7,0-12.1-5.4-12.1-12.1V70.1c0-25.3-20.6-45.9-45.9-45.9H70.1
			c-25.3,0-45.9,20.6-45.9,45.9v410.6c0,25.3,20.6,45.9,45.9,45.9h300.8c6.7,0,12.1,5.4,12.1,12.1S377.5,550.7,370.9,550.7z"/>
	</g>
	<g>
		<path fill="#0C2343" d="M513.1,665c-87,0-157.7-70.7-157.7-157.7c0-87,70.7-157.7,157.7-157.7c87,0,157.7,70.7,157.7,157.7
			C670.8,594.3,600,665,513.1,665z M513.1,373.8c-73.6,0-133.5,59.9-133.5,133.6c0,73.6,59.9,133.5,133.5,133.5
			c73.6,0,133.6-59.9,133.6-133.5C646.6,433.7,586.7,373.8,513.1,373.8z"/>
	</g>
	<g>
		<path fill="#0C2343" d="M518.5,597.1c-6.7,0-12.1-5.4-12.1-12.1v-150c0-6.7,5.4-12.1,12.1-12.1s12.1,5.4,12.1,12.1v150
			C530.6,591.7,525.2,597.1,518.5,597.1z"/>
	</g>
	<g>
		<path fill="#0C2343" d="M593.5,522.1h-150c-6.7,0-12.1-5.4-12.1-12.1s5.4-12.1,12.1-12.1h150c6.7,0,12.1,5.4,12.1,12.1
			S600.2,522.1,593.5,522.1z"/>
	</g>
	<g>
		<path fill="#0C2343" d="M430.5,211.8H114.2c-6.7,0-12.1-5.4-12.1-12.1c0-6.7,5.4-12.1,12.1-12.1h316.3c6.7,0,12.1,5.4,12.1,12.1
			C442.6,206.4,437.2,211.8,430.5,211.8z"/>
	</g>
	<g>
		<path fill="#0C2343" d="M230,347.1H114.2c-6.7,0-12.1-5.4-12.1-12.1s5.4-12.1,12.1-12.1H230c6.7,0,12.1,5.4,12.1,12.1
			S236.7,347.1,230,347.1z"/>
	</g>
</g>
</svg>
