<?xml version="1.0" encoding="utf-8"?>
<!-- Generator: Adobe Illustrator 24.3.0, SVG Export Plug-In . SVG Version: 6.00 Build 0)  -->
<svg version="1.1" id="Capa_1" xmlns="http://www.w3.org/2000/svg" xmlns:xlink="http://www.w3.org/1999/xlink" x="0px" y="0px"
	 viewBox="0 0 652.8 563.3" enable-background="new 0 0 652.8 563.3" xml:space="preserve">
<g>
	<g>
		<path fill="#0C2343" d="M551.2,488.2c-6.7,0-12.1-5.4-12.1-12.1V289.3c0-6.7,5.4-12.1,12.1-12.1s12.1,5.4,12.1,12.1v186.8
			C563.3,482.8,557.9,488.2,551.2,488.2z"/>
	</g>
	<g>
		<g>
			<path fill="#0C2343" d="M221,333.8c0-15.5,5.1-22.2,14.2-23c9.5-0.9,15.6,5,17.3,16.4c2.4,16.7,13.7,27.9,28.5,28.4
				c14.1,0.4,26.2-10,29.2-25.2c2.7-13.7-8.2-29-22.6-31.6c-7.3-1.3-14.9-1.6-22.1-3.6c-24.4-6.7-42.7-28.1-44.4-51.1
				c-2.1-28.3,10.5-51.6,35-62.4c8-3.5,10.9-7.6,9.9-15.9c-1-8,1.1-14.9,9.3-18.5c9.6-4.2,20.4,1.7,21.8,12c0.3,2.5,0.4,5,0.1,7.5
				c-1,7.4,1.6,11.4,9.1,14.5c22.6,9.4,36.9,32.4,35.9,55.3c-0.4,9.4-6.1,15.4-15,15.7c-9.1,0.3-15-4.8-16.4-14.3
				c-2.4-16.9-10.4-27-23.1-29.1c-18-3.1-33.4,8.4-35.2,26.1c-1.6,15.5,12.5,30,29.8,30.7c28.7,1.2,51,18.7,58.1,45.5
				c7.4,28.3-6,58.3-32.7,70.1c-8.7,3.8-11.8,8.3-10.6,17.3c1.1,8.7-2.3,15.6-11.2,18.1c-10.9,3.1-20.7-4.1-19.8-15.6
				c0.8-10.9-2.8-15.9-12.8-20.8C232.9,370.2,222.2,352.4,221,333.8z"/>
		</g>
	</g>
	<g>
		<path fill="#0C2343" d="M281.7,563.3C126.4,563.3,0,437,0,281.7C0,126.4,126.4,0,281.7,0s281.7,126.4,281.7,281.7
			c0,6.7-5.4,12.1-12.1,12.1s-12.1-5.4-12.1-12.1c0-142-115.5-257.5-257.5-257.5S24.2,139.7,24.2,281.7s115.5,257.5,257.5,257.5
			c65.3,0,127.6-24.5,175.3-68.9c4.9-4.6,12.5-4.2,17.1,0.6c4.5,4.9,4.3,12.5-0.6,17.1C421.2,536.5,353.1,563.3,281.7,563.3z"/>
	</g>
	<g>
		<path fill="#0C2343" d="M551.2,508.4c-3.2,0-6.3-1.3-8.5-3.5l-89.5-89.5c-4.7-4.7-4.7-12.4,0-17.1c4.7-4.7,12.4-4.7,17.1,0
			l80.9,80.9l80.9-80.9c4.7-4.7,12.4-4.7,17.1,0c4.7,4.7,4.7,12.4,0,17.1l-89.5,89.5C557.5,507.1,554.4,508.4,551.2,508.4z"/>
	</g>
</g>
</svg>
