<?xml version="1.0" encoding="utf-8"?>
<!-- Generator: Adobe Illustrator 24.3.0, SVG Export Plug-In . SVG Version: 6.00 Build 0)  -->
<svg version="1.1" id="Capa_1" xmlns="http://www.w3.org/2000/svg" xmlns:xlink="http://www.w3.org/1999/xlink" x="0px" y="0px"
	 viewBox="0 0 496.7 496.7" enable-background="new 0 0 496.7 496.7" xml:space="preserve">
<g>
	<g>
		<path fill="#0C2343" d="M248.3,496.7C111.4,496.7,0,385.3,0,248.3C0,111.4,111.4,0,248.3,0c136.9,0,248.3,111.4,248.3,248.3
			C496.7,385.3,385.3,496.7,248.3,496.7z M248.3,24.2c-123.6,0-224.2,100.6-224.2,224.2c0,123.6,100.6,224.2,224.2,224.2
			c123.6,0,224.2-100.6,224.2-224.2C472.5,124.7,371.9,24.2,248.3,24.2z"/>
	</g>
	<g>
		<path fill="#0C2343" d="M325.3,260.4h-77c-6.7,0-12.1-5.4-12.1-12.1V77.7c0-6.7,5.4-12.1,12.1-12.1s12.1,5.4,12.1,12.1v158.5h64.9
			c6.7,0,12.1,5.4,12.1,12.1S332,260.4,325.3,260.4z"/>
	</g>
</g>
</svg>
