<?xml version="1.0" encoding="utf-8"?>
<!-- Generator: Adobe Illustrator 24.3.0, SVG Export Plug-In . SVG Version: 6.00 Build 0)  -->
<svg version="1.1" id="Capa_1" xmlns="http://www.w3.org/2000/svg" xmlns:xlink="http://www.w3.org/1999/xlink" x="0px" y="0px"
	 viewBox="0 0 580.2 573.8" enable-background="new 0 0 580.2 573.8" xml:space="preserve">
<g>
	<g>
		<g>
			<path fill="#0C2343" d="M429.1,573.8c-84.7,0-151.1-42.3-151.1-96.3c0-6.7,5.4-12.1,12.1-12.1s12.1,5.4,12.1,12.1
				c0,39.1,58.1,72.1,126.9,72.1s126.9-33,126.9-72.1c0-6.7,5.4-12.1,12.1-12.1s12.1,5.4,12.1,12.1
				C580.2,531.5,513.8,573.8,429.1,573.8z"/>
		</g>
		<g>
			<path fill="#0C2343" d="M429.1,475c-84.7,0-151.1-42.3-151.1-96.2c0-6.7,5.4-12.1,12.1-12.1s12.1,5.4,12.1,12.1
				c0,39.1,58.1,72.1,126.9,72.1s126.9-33,126.9-72.1c0-6.7,5.4-12.1,12.1-12.1s12.1,5.4,12.1,12.1C580.2,432.7,513.8,475,429.1,475
				z"/>
		</g>
		<g>
			<path fill="#0C2343" d="M429.1,386c-84.7,0-151.1-42.3-151.1-96.3c0-6.7,5.4-12.1,12.1-12.1s12.1,5.4,12.1,12.1
				c0,39.1,58.1,72.1,126.9,72.1s126.9-33,126.9-72.1c0-6.7,5.4-12.1,12.1-12.1s12.1,5.4,12.1,12.1C580.2,343.7,513.8,386,429.1,386
				z"/>
		</g>
		<g>
			<path fill="#0C2343" d="M568.1,299.6c-6.7,0-12.1-5.4-12.1-12.1c0-39.1-58.1-72.1-126.9-72.1s-126.9,33-126.9,72.1
				c0,6.7-5.4,12.1-12.1,12.1s-12.1-5.4-12.1-12.1c0-54,66.4-96.2,151.1-96.2s151.1,42.3,151.1,96.2
				C580.2,294.2,574.8,299.6,568.1,299.6z"/>
		</g>
		<g>
			<path fill="#0C2343" d="M290.1,489.6c-6.7,0-12.1-5.4-12.1-12.1V289.8c0-6.7,5.4-12.1,12.1-12.1s12.1,5.4,12.1,12.1v187.8
				C302.2,484.2,296.8,489.6,290.1,489.6z"/>
		</g>
		<g>
			<path fill="#0C2343" d="M568.1,489.6c-6.7,0-12.1-5.4-12.1-12.1V289.8c0-6.7,5.4-12.1,12.1-12.1s12.1,5.4,12.1,12.1v187.8
				C580.2,484.2,574.8,489.6,568.1,489.6z"/>
		</g>
	</g>
	<g>
		<g>
			<path fill="#0C2343" d="M151.1,382.6C66.4,382.6,0,340.3,0,286.3c0-6.7,5.4-12.1,12.1-12.1s12.1,5.4,12.1,12.1
				c0,39.1,58.1,72.1,126.9,72.1s126.9-33,126.9-72.1c0-6.7,5.4-12.1,12.1-12.1s12.1,5.4,12.1,12.1
				C302.2,340.3,235.8,382.6,151.1,382.6z"/>
		</g>
		<g>
			<path fill="#0C2343" d="M151.1,283.8C66.4,283.8,0,241.5,0,187.5c0-6.7,5.4-12.1,12.1-12.1s12.1,5.4,12.1,12.1
				c0,39.1,58.1,72.1,126.9,72.1s126.9-33,126.9-72.1c0-6.7,5.4-12.1,12.1-12.1s12.1,5.4,12.1,12.1
				C302.2,241.5,235.8,283.8,151.1,283.8z"/>
		</g>
		<g>
			<path fill="#0C2343" d="M151.1,573.8C66.4,573.8,0,531.5,0,477.5c0-6.7,5.4-12.1,12.1-12.1s12.1,5.4,12.1,12.1
				c0,39.1,58.1,72.1,126.9,72.1s126.9-33,126.9-72.1c0-6.7,5.4-12.1,12.1-12.1s12.1,5.4,12.1,12.1
				C302.2,531.5,235.8,573.8,151.1,573.8z"/>
		</g>
		<g>
			<path fill="#0C2343" d="M151.1,475C66.4,475,0,432.7,0,378.8c0-6.7,5.4-12.1,12.1-12.1s12.1,5.4,12.1,12.1
				c0,39.1,58.1,72.1,126.9,72.1s126.9-33,126.9-72.1c0-6.7,5.4-12.1,12.1-12.1s12.1,5.4,12.1,12.1C302.2,432.7,235.8,475,151.1,475
				z"/>
		</g>
		<g>
			<path fill="#0C2343" d="M151.1,194.8C66.4,194.8,0,152.5,0,98.5c0-6.7,5.4-12.1,12.1-12.1s12.1,5.4,12.1,12.1
				c0,39.1,58.1,72.1,126.9,72.1S278,137.6,278,98.5c0-6.7,5.4-12.1,12.1-12.1s12.1,5.4,12.1,12.1
				C302.2,152.5,235.8,194.8,151.1,194.8z"/>
		</g>
		<g>
			<path fill="#0C2343" d="M290.1,108.3c-6.7,0-12.1-5.4-12.1-12.1c0-39.1-58.1-72.1-126.9-72.1S24.2,57.2,24.2,96.2
				c0,6.7-5.4,12.1-12.1,12.1S0,102.9,0,96.2C0,42.3,66.4,0,151.1,0c84.7,0,151.1,42.3,151.1,96.2
				C302.2,102.9,296.8,108.3,290.1,108.3z"/>
		</g>
		<g>
			<path fill="#0C2343" d="M12.1,497C5.4,497,0,491.6,0,484.9V98.5c0-6.7,5.4-12.1,12.1-12.1s12.1,5.4,12.1,12.1v386.4
				C24.2,491.6,18.8,497,12.1,497z"/>
		</g>
		<g>
			<path fill="#0C2343" d="M290.1,497c-6.7,0-12.1-5.4-12.1-12.1V98.5c0-6.7,5.4-12.1,12.1-12.1s12.1,5.4,12.1,12.1v386.4
				C302.2,491.6,296.8,497,290.1,497z"/>
		</g>
	</g>
</g>
</svg>
