<?xml version="1.0" encoding="utf-8"?>
<!-- Generator: Adobe Illustrator 24.3.0, SVG Export Plug-In . SVG Version: 6.00 Build 0)  -->
<svg version="1.1" id="Capa_1" xmlns="http://www.w3.org/2000/svg" xmlns:xlink="http://www.w3.org/1999/xlink" x="0px" y="0px"
	 viewBox="0 0 516.9 531.1" enable-background="new 0 0 516.9 531.1" xml:space="preserve">
<g>
	<g>
		<path fill="#0C2343" d="M126.6,531.1c-12.3,0-24.6-0.1-36.9-0.2c-33-0.4-45.9-13.8-46.1-47.5c-0.2-49.2-0.1-98.4-0.1-147.6l0-75.1
			c-3,0.3-6.4,0.1-10.6-1.1c-7.8-2.3-14.9-6.9-20.6-13.2c-8.1-9-12.6-20.7-12.3-32.1c0.5-20,14.4-30.2,25.7-38.4
			c2.4-1.8,4.8-3.5,7.1-5.4c45.1-37.2,90.9-73.5,136.7-109.9l43.8-35c21-17.1,31.2-25.9,45.3-25.5c6.7,0,12,5.5,12,12.2
			c0,6.6-5.4,12-12.1,12c0,0-0.1,0-0.1,0c-5,0-14.9,8-29.8,20.1l-44,35.2c-45.7,36.3-91.4,72.6-136.4,109.7
			c-2.6,2.2-5.4,4.2-8.2,6.2c-9.9,7.2-15.6,11.7-15.7,19.5c-0.1,5.3,2.1,11,6,15.3c2.7,3,6.1,5.2,9.6,6.2c1.5,0.2,2.7-0.2,3.5-0.5
			c1.4-0.5,2.9-1.1,4.6-1.6c10.4-3.1,17.2,2.5,19.3,9c1,3.2,0.8,6.3,0.6,8.8l-0.1,83.7c0,49.2,0,98.4,0.1,147.5
			c0.1,20.6,2.6,23.2,22.2,23.5c27.7,0.4,55.5,0.3,83.2-0.1c20.2-0.3,21.9-2,22.3-23.4c0.2-12.2,0.2-24.4,0.1-36.6l0-21.4
			c0.2-45.1,25.1-74.5,63.5-75c6.2-0.4,12.1,5.3,12.2,11.9c0.1,6.7-5.2,12.1-11.9,12.2c-25.1,0.3-39.5,18.9-39.6,51l0,21.3
			c0,12.4,0.1,24.8-0.1,37.1c-0.6,34.3-12.7,46.6-46.1,47.1C157.9,531,142.3,531.1,126.6,531.1z"/>
	</g>
	<g>
		<path fill="#0C2343" d="M390.3,531.1c-15.6,0-31.3-0.1-47-0.4c-33.4-0.5-45.5-12.8-46.1-47.1c-0.2-12.4-0.2-24.7-0.1-37.1l0-21.3
			c-0.1-18.8-5.1-50.5-38.1-51c-6.7-0.1-12-5.6-11.9-12.2c0.1-6.7,4.6-12.5,12.2-11.9c38,0.5,61.8,29.2,62,75l0,21.4
			c0,12.2-0.1,24.4,0.1,36.6c0.4,21.3,2.1,23.1,22.3,23.4c27.7,0.4,55.4,0.5,83.2,0.1c19.7-0.3,22.2-2.9,22.2-23.5
			c0.2-49.2,0.1-98.4,0.1-147.5l0-81.4c-0.3-4.8-0.5-7.9,0.5-11.2c2-6.4,8.8-12.1,19.2-8.9c1.8,0.5,3.3,1.1,4.6,1.6
			c0.8,0.3,2,0.8,2.3,0.8c4.7-1.3,8.1-3.5,10.8-6.5c3.9-4.4,6.2-10.1,6.1-15.3c-0.2-7.7-5.8-12.2-15.7-19.5c-2.8-2-5.6-4.1-8.2-6.2
			c-45.1-37.2-90.9-73.5-136.7-109.9l-43.7-34.9c-14.9-12.1-24.8-20.1-29.8-20.1c0,0-0.1,0-0.1,0c-6.6,0-12-5.4-12.1-12
			c0-6.7,5.3-12.1,12-12.2c14,1,24.3,8.5,45.3,25.5l43.5,34.8c45.9,36.5,91.8,72.9,137,110.2c2.3,1.9,4.7,3.6,7.1,5.4
			c11.2,8.2,25.2,18.4,25.7,38.4c0.3,11.5-4.2,23.2-12.3,32.1c-5.7,6.3-12.8,10.8-20.6,13.1c-4.2,1.2-7.7,1.4-10.6,1.1l0,75.1
			c0,49.2,0,98.4-0.1,147.6c-0.1,33.8-13,47.1-46.1,47.5C414.9,531,402.6,531.1,390.3,531.1z"/>
	</g>
</g>
</svg>
