<?xml version="1.0" encoding="utf-8"?>
<!-- Generator: Adobe Illustrator 24.3.0, SVG Export Plug-In . SVG Version: 6.00 Build 0)  -->
<svg version="1.1" id="Capa_1" xmlns="http://www.w3.org/2000/svg" xmlns:xlink="http://www.w3.org/1999/xlink" x="0px" y="0px"
	 viewBox="0 0 563.3 563.3" enable-background="new 0 0 563.3 563.3" xml:space="preserve">
<g>
	<g>
		<path fill="#0C2343" d="M281.6,563.3C126.3,563.3,0,437,0,281.7C0,126.4,126.3,0,281.6,0s281.7,126.4,281.7,281.7
			C563.3,437,437,563.3,281.6,563.3z M281.6,24.2c-142,0-257.5,115.5-257.5,257.5s115.5,257.5,257.5,257.5
			c142,0,257.5-115.5,257.5-257.5S423.6,24.2,281.6,24.2z"/>
	</g>
	<g>
		<path fill="#0C2343" d="M256.3,390.2c-3.3,0-6.4-1.3-8.7-3.7l-62-64.3c-4.6-4.8-4.5-12.4,0.3-17.1c4.8-4.6,12.5-4.5,17.1,0.3
			l52.4,54.3l143-181.9c4.1-5.3,11.7-6.1,17-2.1c5.2,4.1,6.2,11.7,2,17L265.8,385.5c-2.2,2.8-5.4,4.4-8.9,4.6
			C256.7,390.2,256.5,390.2,256.3,390.2z"/>
	</g>
</g>
</svg>
