<?xml version="1.0" encoding="utf-8"?>
<!-- Generator: Adobe Illustrator 24.3.0, SVG Export Plug-In . SVG Version: 6.00 Build 0)  -->
<svg version="1.1" id="Capa_1" xmlns="http://www.w3.org/2000/svg" xmlns:xlink="http://www.w3.org/1999/xlink" x="0px" y="0px"
	 viewBox="0 0 520.1 478.3" enable-background="new 0 0 520.1 478.3" xml:space="preserve">
<g>
	<g>
		<path fill="#0C2343" d="M508,478.3H68.3C30.6,478.3,0,447.7,0,410v-398C0,5.4,5.4,0,12.1,0s12.1,5.4,12.1,12.1v398
			c0,24.3,19.8,44.1,44.1,44.1H508c6.7,0,12.1,5.4,12.1,12.1S514.7,478.3,508,478.3z"/>
	</g>
	<g>
		<path fill="#0C2343" d="M145,478.3c-6.7,0-12.1-5.4-12.1-12.1V158.5c0-6.7,5.4-12.1,12.1-12.1c6.7,0,12.1,5.4,12.1,12.1v307.8
			C157.1,472.9,151.7,478.3,145,478.3z"/>
	</g>
	<g>
		<path fill="#0C2343" d="M304.9,478.3c-6.7,0-12.1-5.4-12.1-12.1V22.6c0-6.7,5.4-12.1,12.1-12.1c6.7,0,12.1,5.4,12.1,12.1v443.6
			C317,472.9,311.6,478.3,304.9,478.3z"/>
	</g>
	<g>
		<path fill="#0C2343" d="M452.7,478.3c-6.7,0-12.1-5.4-12.1-12.1V158.5c0-6.7,5.4-12.1,12.1-12.1s12.1,5.4,12.1,12.1v307.8
			C464.8,472.9,459.4,478.3,452.7,478.3z"/>
	</g>
</g>
</svg>
