<?xml version="1.0" encoding="utf-8"?>
<!-- Generator: Adobe Illustrator 24.3.0, SVG Export Plug-In . SVG Version: 6.00 Build 0)  -->
<svg version="1.1" id="Capa_1" xmlns="http://www.w3.org/2000/svg" xmlns:xlink="http://www.w3.org/1999/xlink" x="0px" y="0px"
	 viewBox="0 0 1080 396.7" enable-background="new 0 0 1080 396.7" xml:space="preserve">
<g>
	<g>
		<path fill="#FFFFFF" d="M368.6,269.9v4.4h-9.4v29.4h-5.5v-29.4h-9.4v-4.4H368.6z"/>
		<path fill="#FFFFFF" d="M397.1,277.3v26.4h-5.5V298c-0.7,2-1.8,3.5-3.5,4.5c-1.7,1.1-3.6,1.6-5.8,1.6c-3.1,0-5.5-1-7.4-3
			c-1.9-2-2.8-4.8-2.8-8.5v-15.3h5.5v14.8c0,2.4,0.6,4.2,1.8,5.5c1.2,1.3,2.9,1.9,5,1.9c2.2,0,3.9-0.7,5.2-2.1c1.3-1.4,2-3.5,2-6.1
			v-14H397.1z"/>
		<path fill="#FFFFFF" d="M431.6,278.7c1.7,1.2,2.9,2.7,3.6,4.7v-6.1h5.5V304c0,2.5-0.5,4.6-1.5,6.5c-1,1.9-2.5,3.4-4.3,4.5
			c-1.9,1.1-4.1,1.6-6.7,1.6c-3.7,0-6.7-0.9-9-2.6c-2.3-1.8-3.7-4.1-4.3-7.1h5.4c0.4,1.6,1.3,2.8,2.6,3.7c1.3,0.9,2.9,1.3,4.9,1.3
			c2.2,0,4-0.7,5.4-2c1.4-1.3,2.1-3.3,2.1-5.8v-6.4c-0.7,1.9-1.9,3.5-3.6,4.7c-1.7,1.2-3.7,1.8-6.1,1.8c-2.3,0-4.4-0.5-6.2-1.6
			c-1.8-1.1-3.2-2.7-4.2-4.7c-1-2-1.5-4.5-1.5-7.2c0-2.7,0.5-5.1,1.5-7.2c1-2,2.4-3.6,4.2-4.7c1.8-1.1,3.9-1.6,6.2-1.6
			C427.8,277,429.9,277.6,431.6,278.7z M421.3,284.1c-1.5,1.6-2.2,3.7-2.2,6.4s0.7,4.9,2.2,6.4c1.5,1.6,3.4,2.3,5.8,2.3
			c1.5,0,2.9-0.4,4.1-1.1c1.2-0.7,2.2-1.7,2.9-3c0.7-1.3,1.1-2.8,1.1-4.6c0-1.7-0.4-3.3-1.1-4.6c-0.7-1.3-1.7-2.3-2.9-3.1
			c-1.2-0.7-2.6-1.1-4.1-1.1C424.7,281.8,422.7,282.5,421.3,284.1z"/>
		<path fill="#FFFFFF" d="M471.6,291.6h-20.3c0.1,2.7,0.8,4.7,2.3,6c1.4,1.3,3.1,2,5.2,2c1.8,0,3.4-0.5,4.6-1.4
			c1.3-0.9,2-2.2,2.3-3.7h5.8c-0.4,1.9-1.1,3.5-2.2,4.9c-1.1,1.4-2.6,2.6-4.4,3.4c-1.8,0.8-3.8,1.2-6,1.2c-2.6,0-4.8-0.5-6.8-1.6
			c-2-1.1-3.5-2.7-4.6-4.7c-1.1-2-1.7-4.5-1.7-7.2c0-2.7,0.6-5.1,1.7-7.2c1.1-2,2.7-3.6,4.6-4.7c2-1.1,4.2-1.6,6.8-1.6
			c2.6,0,4.8,0.5,6.8,1.6c1.9,1.1,3.4,2.5,4.5,4.4c1,1.9,1.6,4,1.6,6.3C471.8,290.1,471.7,290.9,471.6,291.6z M465.4,284.8
			c-0.7-1.2-1.6-2-2.7-2.6c-1.1-0.6-2.4-0.8-3.7-0.8c-2.1,0-3.9,0.7-5.4,2c-1.4,1.3-2.2,3.2-2.3,5.8h15
			C466.3,287.4,466,285.9,465.4,284.8z"/>
		<path fill="#FFFFFF" d="M493.2,279.3c1.9,1.6,3,3.7,3.4,6.4h-5.2c-0.2-1.4-0.8-2.6-1.8-3.5c-1-0.9-2.3-1.3-4-1.3
			c-1.4,0-2.4,0.3-3.2,1c-0.8,0.7-1.1,1.5-1.1,2.7c0,0.8,0.3,1.5,0.8,2c0.5,0.5,1.2,0.9,2,1.2s2,0.6,3.5,1c2,0.4,3.6,0.9,4.8,1.4
			c1.2,0.5,2.3,1.2,3.2,2.3c0.9,1,1.3,2.5,1.3,4.2c0,2.2-0.8,4-2.5,5.4c-1.7,1.4-3.9,2.1-6.8,2.1c-3.3,0-6-0.8-8-2.3
			c-2-1.5-3.3-3.7-3.7-6.4h5.3c0.2,1.4,0.8,2.6,1.9,3.5c1.1,0.9,2.6,1.3,4.4,1.3c1.3,0,2.3-0.3,3.1-1c0.8-0.7,1.1-1.6,1.1-2.6
			c0-0.9-0.3-1.7-0.9-2.2c-0.6-0.5-1.3-1-2.2-1.3c-0.9-0.3-2-0.6-3.5-0.9c-1.9-0.4-3.5-0.9-4.7-1.3c-1.2-0.4-2.2-1.2-3.1-2.2
			c-0.8-1-1.3-2.4-1.3-4.1c0-2.2,0.8-4.1,2.5-5.4c1.7-1.4,4-2.1,7-2.1C488.8,277,491.3,277.8,493.2,279.3z"/>
		<path fill="#FFFFFF" d="M515.6,299v4.7h-3.4c-2.8,0-4.9-0.7-6.4-2c-1.5-1.4-2.2-3.6-2.2-6.8V282h-3.8v-4.7h3.8v-6.6h5.5v6.6h6.4
			v4.7h-6.4v13c0,1.5,0.3,2.5,0.8,3.1c0.6,0.6,1.5,0.9,2.9,0.9H515.6z"/>
		<path fill="#FFFFFF" d="M520.9,267.3c0.6-0.6,1.5-0.9,2.5-0.9s1.9,0.3,2.6,0.9c0.7,0.6,1,1.4,1,2.3c0,0.9-0.3,1.7-1,2.3
			c-0.7,0.6-1.5,0.9-2.6,0.9s-1.9-0.3-2.5-0.9c-0.6-0.6-1-1.3-1-2.3C520,268.7,520.3,267.9,520.9,267.3z M526.2,277.3v26.4h-5.5
			v-26.4H526.2z"/>
		<path fill="#FFFFFF" d="M551.8,278.6c2,1.1,3.6,2.7,4.8,4.7c1.2,2,1.7,4.4,1.7,7.2c0,2.8-0.6,5.2-1.7,7.2c-1.2,2-2.7,3.6-4.8,4.7
			c-2,1.1-4.3,1.6-6.9,1.6c-2.6,0-4.9-0.5-6.9-1.6c-2-1.1-3.6-2.7-4.8-4.7c-1.2-2.1-1.8-4.5-1.8-7.2s0.6-5.1,1.8-7.2
			c1.2-2,2.8-3.6,4.8-4.7c2-1.1,4.3-1.6,6.9-1.6C547.5,277,549.8,277.5,551.8,278.6z M541,282.7c-1.2,0.6-2.1,1.6-2.9,2.9
			c-0.7,1.3-1.1,2.9-1.1,4.9c0,1.9,0.4,3.6,1.1,4.9c0.7,1.3,1.7,2.3,2.9,2.9c1.2,0.6,2.5,1,3.9,1c1.4,0,2.7-0.3,3.9-1
			c1.2-0.6,2.1-1.6,2.9-2.9c0.7-1.3,1.1-2.9,1.1-4.9c0-1.9-0.4-3.5-1.1-4.9c-0.7-1.3-1.7-2.3-2.9-2.9c-1.2-0.6-2.5-1-3.9-1
			C543.5,281.7,542.2,282,541,282.7z M552.5,269.8l-10.6,5.4v-3.8l10.6-5.8V269.8z"/>
		<path fill="#FFFFFF" d="M585.8,279.9c1.9,2,2.8,4.8,2.8,8.5v15.4h-5.5v-14.8c0-2.4-0.6-4.2-1.8-5.5c-1.2-1.3-2.9-1.9-5-1.9
			c-2.2,0-3.9,0.7-5.2,2.1c-1.3,1.4-2,3.4-2,6.1v14h-5.5v-26.4h5.5v5.8c0.7-2,1.9-3.5,3.5-4.6c1.7-1.1,3.6-1.6,5.8-1.6
			C581.5,276.9,583.9,277.9,585.8,279.9z"/>
		<path fill="#FFFFFF" d="M622.9,278.7c1.7,1.2,2.9,2.7,3.6,4.7v-6.1h5.5v26.4h-5.5v-6.1c-0.7,1.9-1.9,3.5-3.6,4.7
			c-1.7,1.2-3.7,1.8-6.1,1.8c-2.3,0-4.4-0.5-6.2-1.6c-1.8-1.1-3.2-2.7-4.2-4.7c-1-2-1.5-4.5-1.5-7.2c0-2.7,0.5-5.1,1.5-7.2
			c1-2,2.4-3.6,4.2-4.7c1.8-1.1,3.9-1.6,6.2-1.6C619.1,277,621.2,277.6,622.9,278.7z M612.6,284.1c-1.5,1.6-2.2,3.7-2.2,6.4
			s0.7,4.9,2.2,6.4c1.5,1.6,3.4,2.3,5.8,2.3c1.5,0,2.9-0.4,4.1-1.1c1.2-0.7,2.2-1.7,2.9-3c0.7-1.3,1.1-2.8,1.1-4.6
			c0-1.7-0.4-3.3-1.1-4.6c-0.7-1.3-1.7-2.3-2.9-3.1c-1.2-0.7-2.6-1.1-4.1-1.1C616,281.8,614,282.5,612.6,284.1z"/>
		<path fill="#FFFFFF" d="M644,268.2v35.5h-5.5v-35.5H644z"/>
		<path fill="#FFFFFF" d="M678.5,278.7c1.7,1.2,2.9,2.7,3.5,4.7v-15.2h5.5v35.5h-5.5v-6.1c-0.7,1.9-1.9,3.5-3.5,4.7
			c-1.7,1.2-3.7,1.8-6.1,1.8c-2.3,0-4.4-0.5-6.2-1.6c-1.8-1.1-3.2-2.7-4.2-4.7c-1-2-1.5-4.5-1.5-7.2c0-2.7,0.5-5.1,1.5-7.2
			c1-2,2.4-3.6,4.2-4.7c1.8-1.1,3.9-1.6,6.2-1.6C674.8,277,676.8,277.6,678.5,278.7z M668.3,284.1c-1.5,1.6-2.2,3.7-2.2,6.4
			s0.7,4.9,2.2,6.4c1.5,1.6,3.4,2.3,5.8,2.3c1.5,0,2.9-0.4,4.1-1.1s2.2-1.7,2.9-3c0.7-1.3,1.1-2.8,1.1-4.6c0-1.7-0.4-3.3-1.1-4.6
			c-0.7-1.3-1.7-2.3-2.9-3.1s-2.6-1.1-4.1-1.1C671.6,281.8,669.7,282.5,668.3,284.1z"/>
		<path fill="#FFFFFF" d="M705.1,269.8l-10.6,5.4v-3.8l10.6-5.8V269.8z M700.2,277.3v26.4h-5.5v-26.4H700.2z"/>
		<path fill="#FFFFFF" d="M724.1,278.7c1.7,1.2,2.9,2.7,3.6,4.7v-6.1h5.5v26.4h-5.5v-6.1c-0.7,1.9-1.9,3.5-3.6,4.7
			c-1.7,1.2-3.7,1.8-6.1,1.8c-2.3,0-4.4-0.5-6.2-1.6c-1.8-1.1-3.2-2.7-4.2-4.7c-1-2-1.5-4.5-1.5-7.2c0-2.7,0.5-5.1,1.5-7.2
			c1-2,2.4-3.6,4.2-4.7c1.8-1.1,3.9-1.6,6.2-1.6C720.4,277,722.4,277.6,724.1,278.7z M713.8,284.1c-1.5,1.6-2.2,3.7-2.2,6.4
			s0.7,4.9,2.2,6.4c1.5,1.6,3.4,2.3,5.8,2.3c1.5,0,2.9-0.4,4.1-1.1s2.2-1.7,2.9-3c0.7-1.3,1.1-2.8,1.1-4.6c0-1.7-0.4-3.3-1.1-4.6
			c-0.7-1.3-1.7-2.3-2.9-3.1s-2.6-1.1-4.1-1.1C717.2,281.8,715.3,282.5,713.8,284.1z"/>
	</g>
	<g>
		<path fill="#FFFFFF" d="M135.2,197.2c-33.1,0-55.7-23.8-55.7-58.6c0-35.5,22.2-58.6,55.1-58.6c27.8,0,45.6,13.6,51.5,37.1
			c0.3,1-0.3,1.8-1.3,1.8h-21.7c-1,0-1.9-0.6-2.2-1.8c-3.7-12.2-12.5-18.6-26.2-18.6c-19.6,0-30,15.6-30,40.4
			c0,24.4,11.1,39.6,31,39.6c16.1,0,26.2-9.5,26.8-26.8h-27.6c-1,0-1.8-0.8-1.8-1.8v-14.4c0-1,0.8-1.8,1.8-1.8h52
			c1,0,1.8,0.8,1.8,1.8C189,177,169.6,197.2,135.2,197.2z"/>
		<path fill="#FFFFFF" d="M275.2,166.9c1,0,1.8,0.8,1.6,1.8c-2.2,15.1-16.7,28.3-39.6,28.3c-27.6,0-42.5-18.1-42.5-43.2
			c0-26.3,15.7-43.7,42.1-43.7c27.1,0,42.1,17.8,42.7,46.6c0,1-0.8,1.8-1.8,1.8h-58.7c1,15.6,7.1,22.5,18.6,22.5
			c8,0,13.8-3.5,16.1-12.2c0.2-1.1,1.1-1.8,2.1-1.8H275.2z M236.8,125.9c-9.6,0-15.4,5.8-17.3,17.2h33.9
			C252.4,134.3,247.4,125.9,236.8,125.9z"/>
		<path fill="#FFFFFF" d="M323.5,196.7c-23.4,0-39.6-9.6-40.6-27.9c0-1,0.8-1.8,1.8-1.8h19.9c1,0,1.8,0.8,1.8,1.8
			c0.8,9,6.7,13,18,13c9.5,0,14.6-3.7,14.6-10.1c0-15.7-54.1-0.5-54.1-35.2c0-17.2,13.8-26.3,36.1-26.3c21.5,0,36.1,8.5,37.7,25.7
			c0.2,1-0.6,1.8-1.6,1.8h-18.8c-1.1,0-1.9-0.6-2.2-1.8c-1.3-6.9-5.8-11.1-15.4-11.1c-7.9,0-12.8,2.9-12.8,10
			c0,15.7,54.1-0.3,54.1,34.8C361.8,186.9,345.5,196.7,323.5,196.7z"/>
		<path fill="#FFFFFF" d="M417.2,191.4c0,1-0.8,2.1-1.6,2.4c-4.7,1.4-9.8,2.6-14.8,2.6c-14,0-27.3-7.1-27.3-25.8l0.2-41.4h-9
			c-1,0-1.8-0.8-1.8-1.8v-13.5c0-1,0.8-1.8,1.8-1.8h8.8l-0.2-18.9c0-1,0.8-1.8,1.8-1.8H396c1,0,1.8,0.8,1.8,1.8l-0.2,18.9h18
			c1,0,1.8,0.8,1.8,1.8v13.5c0,1-0.8,1.8-1.8,1.8h-18.1l0.2,40.8c0,7.1,3.5,9.3,8.8,9.3c3.7,0,6.6-0.6,9-1.3c1-0.2,1.8,0.5,1.8,1.3
			V191.4z"/>
		<path fill="#FFFFFF" d="M426.5,194.8c-1,0-1.8-0.8-1.8-1.8l0.6-39.5l-0.6-39.6c0-1,0.8-1.8,1.8-1.8h21.2c1,0,1.8,0.8,1.8,1.8
			l-0.6,39.6l0.6,39.5c0,1-0.8,1.8-1.8,1.8H426.5z M426.7,104.1c-1,0-1.8-0.8-1.8-1.8V84.2c0-1,0.8-1.8,1.8-1.8h20.9
			c1,0,1.8,0.8,1.8,1.8v18.1c0,1-0.8,1.8-1.8,1.8H426.7z"/>
		<path fill="#FFFFFF" d="M562.2,194.8c-1,0-1.8-0.8-1.8-1.8l0.6-37.9l-0.3-41.3c0-1,0.8-1.8,1.8-1.8h19.7c1,0,1.8,0.8,1.6,1.8
			l-0.3,8.7c5.6-7.2,15.1-12.4,26.6-12.4c17.5,0,28.7,11.9,28.7,32.1v17.3l0.5,33.4c0,1-0.8,1.8-1.8,1.8h-20.9c-1,0-1.8-0.8-1.8-1.8
			l0.5-33.4v-17c0-9-5.5-14.8-12.7-14.8c-8.7,0-18,8-18,25.7v6.1l0.3,33.4c0,1-0.8,1.8-1.8,1.8H562.2z"/>
		<path fill="#FFFFFF" d="M708.1,194.8c-1,0-1.8-0.8-1.8-1.8l0.3-7.9c-5.8,7.1-14,11.2-24.4,11.2c-23.4,0-35.8-18.6-35.8-42.7
			c0-23.9,13.8-43.2,36.3-43.2c10.3,0,18.3,3.7,23.9,10.6l-0.3-7.2c-0.2-1,0.6-1.8,1.6-1.8h20.9c1,0,1.8,0.8,1.8,1.8l-0.6,39.6
			l0.6,39.5c0,1-0.8,1.8-1.8,1.8H708.1z M689,180.4c11.7,0,17.8-8.8,18.1-26.3c0.2-17.7-6.3-27.3-17.7-27.4
			c-12.2-0.3-18.5,8.8-18.5,25.8C671,171,677.4,180.5,689,180.4z"/>
		<path fill="#FFFFFF" d="M820.6,194.8c-0.8,0-1.6-0.6-1.9-1.4l-11.1-32.1h-46.2l-10.8,32.1c-0.3,0.8-1.1,1.4-1.9,1.4h-12.4
			c-0.6,0-1.1-0.6-1-1.3l39.3-109.8c0.3-0.6,1.1-1.3,1.9-1.3h16.7c0.8,0,1.6,0.6,1.9,1.3l39,109.8c0.2,0.6-0.2,1.3-1,1.3H820.6z
			 M803.2,148.6l-18.9-55.2l-18.6,55.2H803.2z"/>
		<path fill="#FFFFFF" d="M881.2,196.4c-11.6,0-20.4-4.8-25.8-14l0.3,38.2c0,0.8-0.6,1.4-1.4,1.4h-12.2c-0.8,0-1.4-0.6-1.4-1.4
			l0.5-61.8l-0.5-45.3c0-0.8,0.6-1.4,1.4-1.4h11.9c0.8,0,1.4,0.6,1.4,1.4l-0.3,11.9c5.5-9.3,14.4-14.9,26.3-14.9
			c22.3,0,34.2,18.6,34.2,42.7C915.6,177.2,903.1,196.4,881.2,196.4z M877.4,185.7c16.1,0,23.4-12.8,23.4-31.3
			c0-19.7-7.4-33.1-23.1-33.1c-14.1,0-23,10.8-23.1,31.5C854.4,173.6,862.8,185.7,877.4,185.7z"/>
		<path fill="#FFFFFF" d="M966.1,196.4c-11.6,0-20.4-4.8-25.8-14l0.3,38.2c0,0.8-0.6,1.4-1.4,1.4H927c-0.8,0-1.4-0.6-1.4-1.4
			l0.5-61.8l-0.5-45.3c0-0.8,0.6-1.4,1.4-1.4h11.9c0.8,0,1.4,0.6,1.4,1.4l-0.3,11.9c5.5-9.3,14.4-14.9,26.3-14.9
			c22.3,0,34.2,18.6,34.2,42.7C1000.5,177.2,988,196.4,966.1,196.4z M962.3,185.7c16.1,0,23.4-12.8,23.4-31.3
			c0-19.7-7.4-33.1-23.1-33.1c-14.1,0-23,10.8-23.1,31.5C939.3,173.6,947.7,185.7,962.3,185.7z"/>
		<g>
			<path fill="#FFFFFF" d="M485.5,210.5h41.4c0,0-0.5,22.2-20.4,22.2C486.7,232.6,485.5,210.5,485.5,210.5z"/>
		</g>
		<g>
			<g>
				<circle fill="#ED8ADD" cx="504.9" cy="156.5" r="46.2"/>
			</g>
		</g>
	</g>
</g>
</svg>
